#define omficon16_width 16
#define omficon16_height 16
static char omficon16_bits[] = {
 0xff,0xff,0x21,0x84,0xad,0xf5,0xad,0x15,0x21,0x74,0xff,0x47,0x00,0x74,0xff,
 0x17,0xdd,0x15,0x01,0x14,0x55,0x15,0xff,0x17,0x00,0x14,0xff,0x17,0x01,0x10,
 0xff,0x1f};
