#define omficon_width 63
#define omficon_height 26
static char omficon_bits[] = {
 0x00,0x00,0x00,0x00,0x00,0x00,0x00,0x80,0x00,0x7e,0x00,0x7f,0x00,0x00,0x00,
 0x80,0xc0,0xc3,0xc0,0xc1,0x00,0x00,0x00,0x80,0x70,0x80,0x71,0x80,0x01,0x00,
 0xfc,0xbf,0x18,0x00,0x19,0x00,0x01,0x00,0x04,0xa0,0x0c,0x00,0x0d,0x00,0x01,
 0x00,0x04,0xa0,0x04,0x00,0x05,0x80,0x01,0x00,0x04,0xa0,0x04,0x80,0x05,0xe0,
 0x00,0x00,0xc4,0xbf,0x06,0x80,0x06,0x30,0xe7,0xce,0x45,0x80,0x02,0x80,0x02,
 0x18,0xbd,0x7a,0x45,0x80,0x02,0x80,0x02,0x08,0x99,0x32,0x45,0x80,0x02,0x80,
 0x02,0x18,0xa5,0x4a,0xc5,0x9f,0x02,0x80,0x06,0x10,0xbd,0x7a,0x05,0x90,0x06,
 0x80,0x05,0x70,0xe7,0xce,0x05,0x90,0x04,0x00,0x05,0xc0,0x00,0x00,0x04,0x90,
 0x04,0x00,0x05,0x80,0x01,0x00,0xc4,0x9f,0x0c,0x00,0x0d,0x00,0x01,0x00,0x44,
 0x80,0x38,0x80,0x39,0x80,0x01,0x00,0x44,0x80,0xe0,0x80,0xe0,0x80,0x00,0x00,
 0x44,0x80,0x80,0xff,0x80,0xff,0x00,0x00,0x44,0x80,0x00,0x00,0x00,0x00,0x00,
 0x00,0x44,0x80,0xfc,0xff,0xff,0xff,0xff,0xff,0x47,0x80,0x04,0x00,0x00,0x00,
 0x00,0x00,0x40,0x80,0x04,0x00,0x00,0x00,0x00,0x00,0x40,0x80,0xfc,0xff,0xff,
 0xff,0xff,0xff,0x7f,0x80,0x00,0x00,0x00,0x00,0x00,0x00,0x00,0x80};
