#define omfmask16_width 16
#define omfmask16_height 16
static char omfmask16_bits[] = {
 0xff,0xff,0xff,0xff,0xff,0xff,0xff,0x1f,0xff,0x7f,0xff,0x7f,0x00,0x7c,0xff,
 0x1f,0xff,0x1f,0xff,0x1f,0xff,0x1f,0xff,0x1f,0x00,0x1c,0xff,0x1f,0xff,0x1f,
 0xff,0x1f};
