<?xml version="1.0" encoding="UTF-8" standalone="no"?>
<!-- Created with Inkscape (http://www.inkscape.org/) -->

<svg
   xmlns:svg="http://www.w3.org/2000/svg"
   xmlns="http://www.w3.org/2000/svg"
   version="1.1"
   width="682.73438"
   height="272.46201"
   id="svg2">
  <defs
     id="defs4" />
  <g
     transform="translate(-38.632816,-73.274008)"
     id="layer1">
    <g
       id="g2969">
      <path
         d="m 311.09375,78.5485 c -30.0025,7.5025 -52.5025,18.7525 -67.5,33.75 -14.9975,14.9975 -22.5,37.4975 -22.5,67.5 0,30.0025 7.5025,52.5025 22.5,67.5 14.9975,14.9975 37.4975,26.2475 67.5,33.75 30.0025,7.5025 52.5025,0 67.5,-22.5 14.9975,-22.5 11.25,-37.4975 -11.25,-45 -22.5,-7.5025 -33.75,-18.7525 -33.75,-33.75 0,-14.9975 11.25,-26.2475 33.75,-33.75 22.5,-7.5025 26.2475,-22.5 11.25,-45 -14.9975,-22.5 -37.4975,-30.0025 -67.5,-22.5"
         id="path2890"
         style="fill:#ffff00;fill-opacity:1;fill-rule:evenodd;stroke:none" />
      <path
         d="m 311.09375,78.5485 c -30.0025,7.5025 -52.5025,18.7525 -67.5,33.75 -14.9975,14.9975 -22.5,37.4975 -22.5,67.5 0,30.0025 7.5025,52.5025 22.5,67.5 14.9975,14.9975 37.4975,26.2475 67.5,33.75 30.0025,7.5025 52.5025,0 67.5,-22.5 14.9975,-22.5 11.25,-37.4975 -11.25,-45 -22.5,-7.5025 -33.75,-18.7525 -33.75,-33.75 0,-14.9975 11.25,-26.2475 33.75,-33.75 22.5,-7.5025 26.2475,-22.5 11.25,-45 -14.9975,-22.5 -37.4975,-30.0025 -67.5,-22.5 z"
         id="path2892"
         style="fill:none;stroke:#ffffff;stroke-width:2.8125;stroke-linecap:butt;stroke-linejoin:miter;stroke-miterlimit:1;stroke-opacity:1;stroke-dasharray:none" />
      <path
         d="m 131.09375,78.5485 c -30.0025,7.5025 -52.502497,18.7525 -67.499997,33.75 -14.9975,14.9975 -22.5,37.4975 -22.5,67.5 0,30.0025 7.5025,52.5025 22.5,67.5 14.9975,14.9975 37.497497,26.2475 67.499997,33.75 30.0025,7.5025 52.5025,0 67.5,-22.5 14.9975,-22.5 18.7525,-37.4975 11.25,-45 -7.5025,-7.5025 -11.25,-18.7525 -11.25,-33.75 0,-14.9975 3.7475,-26.2475 11.25,-33.75 7.5025,-7.5025 3.7475,-22.5 -11.25,-45 -14.9975,-22.5 -37.4975,-30.0025 -67.5,-22.5"
         id="path2894"
         style="fill:#ffff00;fill-opacity:1;fill-rule:evenodd;stroke:none" />
      <path
         d="m 131.09375,78.5485 c -30.0025,7.5025 -52.502497,18.7525 -67.499997,33.75 -14.9975,14.9975 -22.5,37.4975 -22.5,67.5 0,30.0025 7.5025,52.5025 22.5,67.5 14.9975,14.9975 37.497497,26.2475 67.499997,33.75 30.0025,7.5025 52.5025,0 67.5,-22.5 14.9975,-22.5 18.7525,-37.4975 11.25,-45 -7.5025,-7.5025 -11.25,-18.7525 -11.25,-33.75 0,-14.9975 3.7475,-26.2475 11.25,-33.75 7.5025,-7.5025 3.7475,-22.5 -11.25,-45 -14.9975,-22.5 -37.4975,-30.0025 -67.5,-22.5 z"
         id="path2896"
         style="fill:none;stroke:#ffffff;stroke-width:2.8125;stroke-linecap:butt;stroke-linejoin:miter;stroke-miterlimit:1;stroke-opacity:1;stroke-dasharray:none" />
      <path
         d="m 380,181.20475 c 0,-22.5 3.7475,-33.75 11.25,-33.75 7.5025,0 14.9975,7.5025 22.5,22.5 7.5025,14.9975 14.9975,14.9975 22.5,0 7.5025,-14.9975 14.9975,-22.5 22.5,-22.5 7.5025,0 11.25,11.25 11.25,33.75 0,22.5 -3.7475,33.75 -11.25,33.75 -7.5025,0 -11.25,-7.5025 -11.25,-22.5 0,-14.9975 -3.7475,-14.9975 -11.25,0 -7.5025,14.9975 -14.9975,14.9975 -22.5,0 -7.5025,-14.9975 -11.25,-14.9975 -11.25,0 0,14.9975 -3.7475,22.5 -11.25,22.5 -7.5025,0 -11.25,-11.25 -11.25,-33.75"
         id="path2898"
         style="fill:#ffff00;fill-opacity:1;fill-rule:evenodd;stroke:none" />
      <path
         d="m 380,181.20475 c 0,-22.5 3.7475,-33.75 11.25,-33.75 7.5025,0 14.9975,7.5025 22.5,22.5 7.5025,14.9975 14.9975,14.9975 22.5,0 7.5025,-14.9975 14.9975,-22.5 22.5,-22.5 7.5025,0 11.25,11.25 11.25,33.75 0,22.5 -3.7475,33.75 -11.25,33.75 -7.5025,0 -11.25,-7.5025 -11.25,-22.5 0,-14.9975 -3.7475,-14.9975 -11.25,0 -7.5025,14.9975 -14.9975,14.9975 -22.5,0 -7.5025,-14.9975 -11.25,-14.9975 -11.25,0 0,14.9975 -3.7475,22.5 -11.25,22.5 -7.5025,0 -11.25,-11.25 -11.25,-33.75 z"
         id="path2900"
         style="fill:none;stroke:#ffffff;stroke-width:2.8125;stroke-linecap:butt;stroke-linejoin:miter;stroke-miterlimit:1;stroke-opacity:1;stroke-dasharray:none" />
      <path
         d="m 482.65625,181.20475 c 0,-22.5 3.7475,-33.75 11.25,-33.75 7.5025,0 14.9975,7.5025 22.5,22.5 7.5025,14.9975 14.9975,14.9975 22.5,0 7.5025,-14.9975 14.9975,-22.5 22.5,-22.5 7.5025,0 11.25,11.25 11.25,33.75 0,22.5 -3.7475,33.75 -11.25,33.75 -7.5025,0 -11.25,-7.5025 -11.25,-22.5 0,-14.9975 -3.7475,-14.9975 -11.25,0 -7.5025,14.9975 -14.9975,14.9975 -22.5,0 -7.5025,-14.9975 -11.25,-14.9975 -11.25,0 0,14.9975 -3.7475,22.5 -11.25,22.5 -7.5025,0 -11.25,-11.25 -11.25,-33.75"
         id="path2902"
         style="fill:#ffff00;fill-opacity:1;fill-rule:evenodd;stroke:none" />
      <path
         d="m 482.65625,181.20475 c 0,-22.5 3.7475,-33.75 11.25,-33.75 7.5025,0 14.9975,7.5025 22.5,22.5 7.5025,14.9975 14.9975,14.9975 22.5,0 7.5025,-14.9975 14.9975,-22.5 22.5,-22.5 7.5025,0 11.25,11.25 11.25,33.75 0,22.5 -3.7475,33.75 -11.25,33.75 -7.5025,0 -11.25,-7.5025 -11.25,-22.5 0,-14.9975 -3.7475,-14.9975 -11.25,0 -7.5025,14.9975 -14.9975,14.9975 -22.5,0 -7.5025,-14.9975 -11.25,-14.9975 -11.25,0 0,14.9975 -3.7475,22.5 -11.25,22.5 -7.5025,0 -11.25,-11.25 -11.25,-33.75 z"
         id="path2904"
         style="fill:none;stroke:#ffffff;stroke-width:2.8125;stroke-linecap:butt;stroke-linejoin:miter;stroke-miterlimit:1;stroke-opacity:1;stroke-dasharray:none" />
      <path
         d="m 43.906253,299.32975 539.999997,0 0,-202.5 135,0 0,45 -90,0 0,45 67.5,0 0,45 -67.5,0 0,112.5 -584.999997,0"
         id="path2906"
         style="fill:#ffff00;fill-opacity:1;fill-rule:evenodd;stroke:none" />
      <path
         d="m 43.906253,299.32975 539.999997,0 0,-202.5 135,0 0,45 -90,0 0,45 67.5,0 0,45 -67.5,0 0,112.5 -584.999997,0 0,-45 z"
         id="path2908"
         style="fill:none;stroke:#ffffff;stroke-width:2.8125;stroke-linecap:butt;stroke-linejoin:miter;stroke-miterlimit:1;stroke-opacity:1;stroke-dasharray:none" />
      <path
         d="m 131.09375,78.5485 c -30.0025,7.5025 -52.502497,18.7525 -67.499997,33.75 -14.9975,14.9975 -22.5,37.4975 -22.5,67.5 0,30.0025 7.5025,52.5025 22.5,67.5 14.9975,14.9975 37.497497,26.2475 67.499997,33.75 30.0025,7.5025 52.5025,0 67.5,-22.5 14.9975,-22.5 18.7525,-37.4975 11.25,-45 -7.5025,-7.5025 -11.25,-18.7525 -11.25,-33.75 0,-14.9975 3.7475,-26.2475 11.25,-33.75 7.5025,-7.5025 3.7475,-22.5 -11.25,-45 -14.9975,-22.5 -37.4975,-30.0025 -67.5,-22.5 z"
         id="path2910"
         style="fill:none;stroke:#000000;stroke-width:4.921875;stroke-linecap:butt;stroke-linejoin:miter;stroke-miterlimit:1;stroke-opacity:1;stroke-dasharray:none" />
      <path
         d="m 311.09375,78.5485 c -30.0025,7.5025 -52.5025,18.7525 -67.5,33.75 -14.9975,14.9975 -22.5,37.4975 -22.5,67.5 0,30.0025 7.5025,52.5025 22.5,67.5 14.9975,14.9975 37.4975,26.2475 67.5,33.75 30.0025,7.5025 52.5025,0 67.5,-22.5 14.9975,-22.5 11.25,-37.4975 -11.25,-45 -22.5,-7.5025 -33.75,-18.7525 -33.75,-33.75 0,-14.9975 11.25,-26.2475 33.75,-33.75 22.5,-7.5025 26.2475,-22.5 11.25,-45 -14.9975,-22.5 -37.4975,-30.0025 -67.5,-22.5 z"
         id="path2912"
         style="fill:none;stroke:#000000;stroke-width:4.921875;stroke-linecap:butt;stroke-linejoin:miter;stroke-miterlimit:1;stroke-opacity:1;stroke-dasharray:none" />
      <path
         d="m 380,181.20475 c 0,-22.5 3.7475,-33.75 11.25,-33.75 7.5025,0 14.9975,7.5025 22.5,22.5 7.5025,14.9975 14.9975,14.9975 22.5,0 7.5025,-14.9975 14.9975,-22.5 22.5,-22.5 7.5025,0 11.25,11.25 11.25,33.75 0,22.5 -3.7475,33.75 -11.25,33.75 -7.5025,0 -11.25,-7.5025 -11.25,-22.5 0,-14.9975 -3.7475,-14.9975 -11.25,0 -7.5025,14.9975 -14.9975,14.9975 -22.5,0 -7.5025,-14.9975 -11.25,-14.9975 -11.25,0 0,14.9975 -3.7475,22.5 -11.25,22.5 -7.5025,0 -11.25,-11.25 -11.25,-33.75 z"
         id="path2914"
         style="fill:none;stroke:#000000;stroke-width:4.921875;stroke-linecap:butt;stroke-linejoin:miter;stroke-miterlimit:1;stroke-opacity:1;stroke-dasharray:none" />
      <path
         d="m 482.65625,181.20475 c 0,-22.5 3.7475,-33.75 11.25,-33.75 7.5025,0 14.9975,7.5025 22.5,22.5 7.5025,14.9975 14.9975,14.9975 22.5,0 7.5025,-14.9975 14.9975,-22.5 22.5,-22.5 7.5025,0 11.25,11.25 11.25,33.75 0,22.5 -3.7475,33.75 -11.25,33.75 -7.5025,0 -11.25,-7.5025 -11.25,-22.5 0,-14.9975 -3.7475,-14.9975 -11.25,0 -7.5025,14.9975 -14.9975,14.9975 -22.5,0 -7.5025,-14.9975 -11.25,-14.9975 -11.25,0 0,14.9975 -3.7475,22.5 -11.25,22.5 -7.5025,0 -11.25,-11.25 -11.25,-33.75 z"
         id="path2916"
         style="fill:none;stroke:#000000;stroke-width:4.921875;stroke-linecap:butt;stroke-linejoin:miter;stroke-miterlimit:1;stroke-opacity:1;stroke-dasharray:none" />
      <path
         d="m 43.906253,297.9235 539.999997,0 0,-202.5 135,0 0,45 -90,0 0,45 67.5,0 0,45 -67.5,0 0,112.5 -584.999997,0 0,-45 z"
         id="path2918"
         style="fill:none;stroke:#000000;stroke-width:4.921875;stroke-linecap:butt;stroke-linejoin:miter;stroke-miterlimit:1;stroke-opacity:1;stroke-dasharray:none" />
    </g>
  </g>
</svg>
