<?xml version="1.0" encoding="UTF-8" standalone="no"?>
<!-- Created with Inkscape (http://www.inkscape.org/) -->

<svg
   xmlns:svg="http://www.w3.org/2000/svg"
   xmlns="http://www.w3.org/2000/svg"
   version="1.1"
   width="91.40625"
   height="35.507286"
   id="svg3007">
  <defs
     id="defs3009" />
  <g
     transform="translate(-68.582587,-91.75144)"
     id="layer1">
    <g
       id="g3149">
      <path
         d="m 81.238837,92.8056 c -3.7475,0.935 -6.56,2.34125 -8.4375,4.2175 -1.8775,1.8775 -2.8125,4.69 -2.8125,8.4375 0,3.74875 0.935,6.56125 2.8125,8.4375 1.8775,1.8775 4.69,3.28375 8.4375,4.22 3.7475,0.935 6.56,0 8.4375,-2.8125 1.8775,-2.8125 2.34125,-4.69 1.40625,-5.625 -0.935,-0.93625 -1.40625,-2.3425 -1.40625,-4.22 0,-1.87625 0.47125,-3.2825 1.40625,-4.2175 0.935,-0.93625 0.47125,-2.8125 -1.40625,-5.625 -1.8775,-2.8125 -4.69,-3.74875 -8.4375,-2.8125"
         id="path3070"
         style="fill:#ffff00;fill-opacity:1;fill-rule:evenodd;stroke:none" />
      <path
         d="m 81.238837,92.8056 c -3.7475,0.935 -6.56,2.34125 -8.4375,4.2175 -1.8775,1.8775 -2.8125,4.69 -2.8125,8.4375 0,3.74875 0.935,6.56125 2.8125,8.4375 1.8775,1.8775 4.69,3.28375 8.4375,4.22 3.7475,0.935 6.56,0 8.4375,-2.8125 1.8775,-2.8125 2.34125,-4.69 1.40625,-5.625 -0.935,-0.93625 -1.40625,-2.3425 -1.40625,-4.22 0,-1.87625 0.47125,-3.2825 1.40625,-4.2175 0.935,-0.93625 0.47125,-2.8125 -1.40625,-5.625 -1.8775,-2.8125 -4.69,-3.74875 -8.4375,-2.8125 z"
         id="path3072"
         style="fill:none;stroke:#ffffff;stroke-width:1.40625;stroke-linecap:butt;stroke-linejoin:miter;stroke-miterlimit:1;stroke-opacity:1;stroke-dasharray:none" />
      <path
         d="m 81.238837,92.8056 c -3.7475,0.935 -6.56,2.34125 -8.4375,4.2175 -1.8775,1.8775 -2.8125,4.69 -2.8125,8.4375 0,3.74875 0.935,6.56125 2.8125,8.4375 1.8775,1.8775 4.69,3.28375 8.4375,4.22 3.7475,0.935 6.56,0 8.4375,-2.8125 1.8775,-2.8125 2.34125,-4.69 1.40625,-5.625 -0.935,-0.93625 -1.40625,-2.3425 -1.40625,-4.22 0,-1.87625 0.47125,-3.2825 1.40625,-4.2175 0.935,-0.93625 0.47125,-2.8125 -1.40625,-5.625 -1.8775,-2.8125 -4.69,-3.74875 -8.4375,-2.8125 z"
         id="path3074"
         style="fill:none;stroke:#000000;stroke-width:1.40625;stroke-linecap:butt;stroke-linejoin:miter;stroke-miterlimit:1;stroke-opacity:1;stroke-dasharray:none" />
      <path
         d="m 105.14509,92.8056 c -3.7475,0.935 -6.560003,2.34125 -8.437503,4.2175 -1.8775,1.8775 -2.8125,4.69 -2.8125,8.4375 0,3.74875 0.935,6.56125 2.8125,8.4375 1.8775,1.8775 4.690003,3.28375 8.437503,4.22 3.7475,0.935 6.56,0 8.4375,-2.8125 1.8775,-2.8125 1.40625,-4.69 -1.40625,-5.625 -2.8125,-0.93625 -4.21875,-2.3425 -4.21875,-4.22 0,-1.87625 1.40625,-3.2825 4.21875,-4.2175 2.8125,-0.93625 3.28375,-2.8125 1.40625,-5.625 -1.8775,-2.8125 -4.69,-3.74875 -8.4375,-2.8125"
         id="path3076"
         style="fill:#ffff00;fill-opacity:1;fill-rule:evenodd;stroke:none" />
      <path
         d="m 105.14509,92.8056 c -3.7475,0.935 -6.560003,2.34125 -8.437503,4.2175 -1.8775,1.8775 -2.8125,4.69 -2.8125,8.4375 0,3.74875 0.935,6.56125 2.8125,8.4375 1.8775,1.8775 4.690003,3.28375 8.437503,4.22 3.7475,0.935 6.56,0 8.4375,-2.8125 1.8775,-2.8125 1.40625,-4.69 -1.40625,-5.625 -2.8125,-0.93625 -4.21875,-2.3425 -4.21875,-4.22 0,-1.87625 1.40625,-3.2825 4.21875,-4.2175 2.8125,-0.93625 3.28375,-2.8125 1.40625,-5.625 -1.8775,-2.8125 -4.69,-3.74875 -8.4375,-2.8125 z"
         id="path3078"
         style="fill:none;stroke:#ffffff;stroke-width:1.40625;stroke-linecap:butt;stroke-linejoin:miter;stroke-miterlimit:1;stroke-opacity:1;stroke-dasharray:none" />
      <path
         d="m 105.14509,92.8056 c -3.7475,0.935 -6.560003,2.34125 -8.437503,4.2175 -1.8775,1.8775 -2.8125,4.69 -2.8125,8.4375 0,3.74875 0.935,6.56125 2.8125,8.4375 1.8775,1.8775 4.690003,3.28375 8.437503,4.22 3.7475,0.935 6.56,0 8.4375,-2.8125 1.8775,-2.8125 1.40625,-4.69 -1.40625,-5.625 -2.8125,-0.93625 -4.21875,-2.3425 -4.21875,-4.22 0,-1.87625 1.40625,-3.2825 4.21875,-4.2175 2.8125,-0.93625 3.28375,-2.8125 1.40625,-5.625 -1.8775,-2.8125 -4.69,-3.74875 -8.4375,-2.8125 z"
         id="path3080"
         style="fill:none;stroke:#000000;stroke-width:1.40625;stroke-linecap:butt;stroke-linejoin:miter;stroke-miterlimit:1;stroke-opacity:1;stroke-dasharray:none" />
      <path
         d="m 114.28571,105.4606 c 0,-2.8125 0.47125,-4.2175 1.40625,-4.2175 0.935,0 1.8775,0.935 2.8125,2.8125 0.935,1.87625 1.8775,1.87625 2.8125,0 0.935,-1.8775 1.8775,-2.8125 2.8125,-2.8125 0.935,0 1.40625,1.405 1.40625,4.2175 0,2.8125 -0.47125,4.22 -1.40625,4.22 -0.935,0 -1.40625,-0.93625 -1.40625,-2.8125 0,-1.8775 -0.47125,-1.8775 -1.40625,0 -0.935,1.87625 -1.8775,1.87625 -2.8125,0 -0.935,-1.8775 -1.40625,-1.8775 -1.40625,0 0,1.87625 -0.47125,2.8125 -1.40625,2.8125 -0.935,0 -1.40625,-1.4075 -1.40625,-4.22"
         id="path3082"
         style="fill:#ffff00;fill-opacity:1;fill-rule:evenodd;stroke:none" />
      <path
         d="m 114.28571,105.4606 c 0,-2.8125 0.47125,-4.2175 1.40625,-4.2175 0.935,0 1.8775,0.935 2.8125,2.8125 0.935,1.87625 1.8775,1.87625 2.8125,0 0.935,-1.8775 1.8775,-2.8125 2.8125,-2.8125 0.935,0 1.40625,1.405 1.40625,4.2175 0,2.8125 -0.47125,4.22 -1.40625,4.22 -0.935,0 -1.40625,-0.93625 -1.40625,-2.8125 0,-1.8775 -0.47125,-1.8775 -1.40625,0 -0.935,1.87625 -1.8775,1.87625 -2.8125,0 -0.935,-1.8775 -1.40625,-1.8775 -1.40625,0 0,1.87625 -0.47125,2.8125 -1.40625,2.8125 -0.935,0 -1.40625,-1.4075 -1.40625,-4.22 z"
         id="path3084"
         style="fill:none;stroke:#ffffff;stroke-width:1.40625;stroke-linecap:butt;stroke-linejoin:miter;stroke-miterlimit:1;stroke-opacity:1;stroke-dasharray:none" />
      <path
         d="m 114.28571,105.4606 c 0,-2.8125 0.47125,-4.2175 1.40625,-4.2175 0.935,0 1.8775,0.935 2.8125,2.8125 0.935,1.87625 1.8775,1.87625 2.8125,0 0.935,-1.8775 1.8775,-2.8125 2.8125,-2.8125 0.935,0 1.40625,1.405 1.40625,4.2175 0,2.8125 -0.47125,4.22 -1.40625,4.22 -0.935,0 -1.40625,-0.93625 -1.40625,-2.8125 0,-1.8775 -0.47125,-1.8775 -1.40625,0 -0.935,1.87625 -1.8775,1.87625 -2.8125,0 -0.935,-1.8775 -1.40625,-1.8775 -1.40625,0 0,1.87625 -0.47125,2.8125 -1.40625,2.8125 -0.935,0 -1.40625,-1.4075 -1.40625,-4.22 z"
         id="path3086"
         style="fill:none;stroke:#000000;stroke-width:1.40625;stroke-linecap:butt;stroke-linejoin:miter;stroke-miterlimit:1;stroke-opacity:1;stroke-dasharray:none" />
      <path
         d="m 128.34821,105.4606 c 0,-2.8125 0.47125,-4.2175 1.40625,-4.2175 0.935,0 1.8775,0.935 2.8125,2.8125 0.935,1.87625 1.8775,1.87625 2.8125,0 0.935,-1.8775 1.8775,-2.8125 2.8125,-2.8125 0.935,0 1.40625,1.405 1.40625,4.2175 0,2.8125 -0.47125,4.22 -1.40625,4.22 -0.935,0 -1.40625,-0.93625 -1.40625,-2.8125 0,-1.8775 -0.47125,-1.8775 -1.40625,0 -0.935,1.87625 -1.8775,1.87625 -2.8125,0 -0.935,-1.8775 -1.40625,-1.8775 -1.40625,0 0,1.87625 -0.47125,2.8125 -1.40625,2.8125 -0.935,0 -1.40625,-1.4075 -1.40625,-4.22"
         id="path3088"
         style="fill:#ffff00;fill-opacity:1;fill-rule:evenodd;stroke:none" />
      <path
         d="m 128.34821,105.4606 c 0,-2.8125 0.47125,-4.2175 1.40625,-4.2175 0.935,0 1.8775,0.935 2.8125,2.8125 0.935,1.87625 1.8775,1.87625 2.8125,0 0.935,-1.8775 1.8775,-2.8125 2.8125,-2.8125 0.935,0 1.40625,1.405 1.40625,4.2175 0,2.8125 -0.47125,4.22 -1.40625,4.22 -0.935,0 -1.40625,-0.93625 -1.40625,-2.8125 0,-1.8775 -0.47125,-1.8775 -1.40625,0 -0.935,1.87625 -1.8775,1.87625 -2.8125,0 -0.935,-1.8775 -1.40625,-1.8775 -1.40625,0 0,1.87625 -0.47125,2.8125 -1.40625,2.8125 -0.935,0 -1.40625,-1.4075 -1.40625,-4.22 z"
         id="path3090"
         style="fill:none;stroke:#ffffff;stroke-width:1.40625;stroke-linecap:butt;stroke-linejoin:miter;stroke-miterlimit:1;stroke-opacity:1;stroke-dasharray:none" />
      <path
         d="m 128.34821,105.4606 c 0,-2.8125 0.47125,-4.2175 1.40625,-4.2175 0.935,0 1.8775,0.935 2.8125,2.8125 0.935,1.87625 1.8775,1.87625 2.8125,0 0.935,-1.8775 1.8775,-2.8125 2.8125,-2.8125 0.935,0 1.40625,1.405 1.40625,4.2175 0,2.8125 -0.47125,4.22 -1.40625,4.22 -0.935,0 -1.40625,-0.93625 -1.40625,-2.8125 0,-1.8775 -0.47125,-1.8775 -1.40625,0 -0.935,1.87625 -1.8775,1.87625 -2.8125,0 -0.935,-1.8775 -1.40625,-1.8775 -1.40625,0 0,1.87625 -0.47125,2.8125 -1.40625,2.8125 -0.935,0 -1.40625,-1.4075 -1.40625,-4.22 z"
         id="path3092"
         style="fill:none;stroke:#000000;stroke-width:1.40625;stroke-linecap:butt;stroke-linejoin:miter;stroke-miterlimit:1;stroke-opacity:1;stroke-dasharray:none" />
      <path
         d="m 69.285712,120.9306 73.124998,0 0,-25.3125 16.875,0 0,5.625 -11.25,0 0,5.625 8.4375,0 0,5.625 -8.4375,0 0,14.0625 -78.749998,0"
         id="path3094"
         style="fill:#ffff00;fill-opacity:1;fill-rule:evenodd;stroke:none" />
      <path
         d="m 69.285712,120.9306 73.124998,0 0,-25.3125 16.875,0 0,5.625 -11.25,0 0,5.625 8.4375,0 0,5.625 -8.4375,0 0,14.0625 -78.749998,0 0,-5.625 z"
         id="path3096"
         style="fill:none;stroke:#ffffff;stroke-width:1.40625;stroke-linecap:butt;stroke-linejoin:miter;stroke-miterlimit:1;stroke-opacity:1;stroke-dasharray:none" />
      <path
         d="m 69.988837,120.9306 72.421873,0 0,-25.3125 16.875,0 0,5.625 -11.25,0 0,5.625 8.4375,0 0,5.625 -8.4375,0 0,14.0625 -78.046873,0 0,-5.625 z"
         id="path3098"
         style="fill:none;stroke:#000000;stroke-width:1.40625;stroke-linecap:butt;stroke-linejoin:miter;stroke-miterlimit:1;stroke-opacity:1;stroke-dasharray:none" />
    </g>
  </g>
</svg>
