<?xml version="1.0" encoding="UTF-8" standalone="no"?>
<!-- Created with Inkscape (http://www.inkscape.org/) -->

<svg
   xmlns:svg="http://www.w3.org/2000/svg"
   xmlns="http://www.w3.org/2000/svg"
   version="1.1"
   width="118.82812"
   height="73.498337"
   id="svg3187">
  <defs
     id="defs3189" />
  <g
     transform="translate(-315.58594,-495.61303)"
     id="layer1">
    <g
       transform="matrix(1.25,0,0,-1.25,182.34375,1350.6348)"
       id="g3246">
      <g
         transform="scale(0.1,0.1)"
         id="g3248">
        <path
           d="m 1080,6266.25 787.5,0 0,247.5 90,0 0,67.5 -90,0 0,45 135,0 0,67.5 -202.5,0 0,-360 -720,0"
           id="path3250"
           style="fill:#ffff00;fill-opacity:1;fill-rule:evenodd;stroke:none" />
        <path
           d="m 1080,6266.25 787.5,0 0,247.5 90,0 0,67.5 -90,0 0,45 135,0 0,67.5 -202.5,0 0,-360 -720,0 0,-67.5 z"
           id="path3252"
           style="fill:none;stroke:#ffff00;stroke-width:28.125;stroke-linecap:butt;stroke-linejoin:miter;stroke-miterlimit:1;stroke-opacity:1;stroke-dasharray:none" />
        <path
           d="m 1080,6266.25 787.5,0 0,247.5 90,0 0,67.5 -90,0 0,45 135,0 0,67.5 -202.5,0 0,-360 -720,0 0,-67.5 z"
           id="path3254"
           style="fill:none;stroke:#000000;stroke-width:28.125;stroke-linecap:butt;stroke-linejoin:miter;stroke-miterlimit:1;stroke-opacity:1;stroke-dasharray:none" />
        <path
           d="m 1136.25,6426.56 c 3.77,31.9 15.02,59.06 33.75,81.56 18.73,22.5 41.23,14.07 67.5,-25.31 26.27,-39.37 51.58,-37.52 75.94,5.63 24.35,43.14 45.95,50.62 64.68,22.5 18.74,-28.13 29.99,-55.3 33.76,-81.56 3.76,-26.27 -6.59,-46.86 -30.94,-61.88 -24.36,-15.02 -40.33,-0.96 -47.82,42.19 -7.48,43.14 -18.73,45 -33.74,5.62 -15.02,-39.37 -32.8,-39.37 -53.44,0 -20.65,39.38 -33.75,37.52 -39.38,-5.62 -5.62,-43.15 -19.68,-59.07 -42.18,-47.81 -22.5,11.24 -31.9,32.79 -28.13,64.68"
           id="path3256"
           style="fill:#ffff00;fill-opacity:1;fill-rule:evenodd;stroke:none" />
        <path
           d="m 1136.25,6426.56 c 3.77,31.9 15.02,59.06 33.75,81.56 18.73,22.5 41.23,14.07 67.5,-25.31 26.27,-39.37 51.58,-37.52 75.94,5.63 24.35,43.14 45.95,50.62 64.68,22.5 18.74,-28.13 29.99,-55.3 33.76,-81.56 3.76,-26.27 -6.59,-46.86 -30.94,-61.88 -24.36,-15.02 -40.33,-0.96 -47.82,42.19 -7.48,43.14 -18.73,45 -33.74,5.62 -15.02,-39.37 -32.8,-39.37 -53.44,0 -20.65,39.38 -33.75,37.52 -39.38,-5.62 -5.62,-43.15 -19.68,-59.07 -42.18,-47.81 -22.5,11.24 -31.9,32.79 -28.13,64.68 z"
           id="path3258"
           style="fill:none;stroke:#000000;stroke-width:28.125;stroke-linecap:butt;stroke-linejoin:miter;stroke-miterlimit:1;stroke-opacity:1;stroke-dasharray:none" />
        <path
           d="m 1268.44,6825.94 c 28.12,1.85 57.2,-11.25 87.18,-39.38 29.99,-28.12 45,-60.02 45,-95.62 0,-35.61 -8.43,-59.06 -25.31,-70.32 -16.87,-11.24 -38.42,-37.51 -64.69,-78.74 -26.26,-41.24 -60.01,-35.61 -101.24,16.87 -41.24,52.48 -62.84,91.86 -64.69,118.13 -1.86,26.26 11.25,57.2 39.37,92.81 28.13,35.6 56.25,54.39 84.38,56.25"
           id="path3260"
           style="fill:#ffff00;fill-opacity:1;fill-rule:evenodd;stroke:none" />
        <path
           d="m 1268.44,6825.94 c 28.12,1.85 57.2,-11.25 87.18,-39.38 29.99,-28.12 45,-60.02 45,-95.62 0,-35.61 -8.43,-59.06 -25.31,-70.32 -16.87,-11.24 -38.42,-37.51 -64.69,-78.74 -26.26,-41.24 -60.01,-35.61 -101.24,16.87 -41.24,52.48 -62.84,91.86 -64.69,118.13 -1.86,26.26 11.25,57.2 39.37,92.81 28.13,35.6 56.25,54.39 84.38,56.25 z"
           id="path3262"
           style="fill:none;stroke:#000000;stroke-width:28.125;stroke-linecap:butt;stroke-linejoin:miter;stroke-miterlimit:1;stroke-opacity:1;stroke-dasharray:none" />
        <path
           d="m 1485,6426.56 c 3.77,31.9 15.02,59.06 33.75,81.56 18.73,22.5 41.23,14.07 67.5,-25.31 26.27,-39.37 51.58,-37.52 75.94,5.63 24.35,43.14 45.95,50.62 64.69,22.5 18.73,-28.13 29.98,-55.3 33.74,-81.56 3.77,-26.27 -6.58,-46.86 -30.93,-61.88 -24.36,-15.02 -40.33,-0.96 -47.81,42.19 -7.49,43.14 -18.74,45 -33.76,5.62 -15.01,-39.37 -32.79,-39.37 -53.43,0 -20.65,39.38 -33.75,37.52 -39.38,-5.62 -5.62,-43.15 -19.69,-59.07 -42.19,-47.81 -22.5,11.24 -31.89,32.79 -28.12,64.68"
           id="path3264"
           style="fill:#ffff00;fill-opacity:1;fill-rule:evenodd;stroke:none" />
        <path
           d="m 1485,6426.56 c 3.77,31.9 15.02,59.06 33.75,81.56 18.73,22.5 41.23,14.07 67.5,-25.31 26.27,-39.37 51.58,-37.52 75.94,5.63 24.35,43.14 45.95,50.62 64.69,22.5 18.73,-28.13 29.98,-55.3 33.74,-81.56 3.77,-26.27 -6.58,-46.86 -30.93,-61.88 -24.36,-15.02 -40.33,-0.96 -47.81,42.19 -7.49,43.14 -18.74,45 -33.76,5.62 -15.01,-39.37 -32.79,-39.37 -53.43,0 -20.65,39.38 -33.75,37.52 -39.38,-5.62 -5.62,-43.15 -19.69,-59.07 -42.19,-47.81 -22.5,11.24 -31.89,32.79 -28.12,64.68 z"
           id="path3266"
           style="fill:none;stroke:#000000;stroke-width:28.125;stroke-linecap:butt;stroke-linejoin:miter;stroke-miterlimit:1;stroke-opacity:1;stroke-dasharray:none" />
        <path
           d="m 1622.81,6825.94 c 28.13,1.85 57.21,-11.25 87.19,-39.38 29.98,-28.12 45,-60.02 45,-95.62 0,-35.61 -9.39,-59.06 -28.12,-70.32 -18.74,-11.24 -40.34,-37.51 -64.69,-78.74 -24.36,-41.24 -57.21,-35.61 -98.44,16.87 -41.23,52.48 -62.83,91.86 -64.69,118.13 -1.85,26.26 11.25,57.2 39.38,92.81 28.12,35.6 56.25,54.39 84.37,56.25"
           id="path3268"
           style="fill:#ffff00;fill-opacity:1;fill-rule:evenodd;stroke:none" />
        <path
           d="m 1622.81,6825.94 c 28.13,1.85 57.21,-11.25 87.19,-39.38 29.98,-28.12 45,-60.02 45,-95.62 0,-35.61 -9.39,-59.06 -28.12,-70.32 -18.74,-11.24 -40.34,-37.51 -64.69,-78.74 -24.36,-41.24 -57.21,-35.61 -98.44,16.87 -41.23,52.48 -62.83,91.86 -64.69,118.13 -1.85,26.26 11.25,57.2 39.38,92.81 28.12,35.6 56.25,54.39 84.37,56.25 z"
           id="path3270"
           style="fill:none;stroke:#000000;stroke-width:28.125;stroke-linecap:butt;stroke-linejoin:miter;stroke-miterlimit:1;stroke-opacity:1;stroke-dasharray:none" />
      </g>
    </g>
  </g>
</svg>
